<svg width="205" height="43" viewBox="0 0 205 43" fill="none" xmlns="http://www.w3.org/2000/svg">
<g clip-path="url(#clip0_686_2072)">
<path d="M30.4836 0.000488281H12.6851C5.68074 0.000488281 0 5.65892 0 12.6357V30.3603C0 37.3371 5.68074 42.9956 12.6851 42.9956H30.4795C37.4839 42.9956 43.1646 37.3371 43.1646 30.3603V12.6357C43.1646 5.65483 37.4839 0.000488281 30.4795 0.000488281H30.4836ZM35.1409 20.9391H21.8433V8.66829H21.3254V34.078H21.8433V21.4755H35.1409V34.8764H8.02785V7.86988H35.1409V20.9391Z" fill="white"/>
<path d="M54.374 15.0393C54.374 10.3431 58.0118 7.01025 63.1048 7.01025C66.3932 7.01025 68.9828 8.431 70.1214 10.9818L66.5987 12.8652C65.7561 11.3871 64.5024 10.7198 63.076 10.7198C60.7782 10.7198 58.9737 12.3125 58.9737 15.0393C58.9737 17.7662 60.7782 19.3589 63.076 19.3589C64.5024 19.3589 65.752 18.7202 66.5987 17.2134L70.1214 19.1255C68.9869 21.619 66.3973 23.0684 63.1048 23.0684C58.0118 23.0684 54.374 19.7356 54.374 15.0352V15.0393Z" fill="white"/>
<path d="M70.4996 15.0393C70.4996 10.3431 74.1374 7.01025 79.1153 7.01025C84.0931 7.01025 87.7022 10.3431 87.7022 15.0393C87.7022 19.7356 84.0931 23.0725 79.1153 23.0725C74.1374 23.0725 70.4996 19.7397 70.4996 15.0393ZM83.1025 15.0393C83.1025 12.3452 81.3843 10.7198 79.1153 10.7198C76.8463 10.7198 75.0993 12.3452 75.0993 15.0393C75.0993 17.7334 76.8463 19.3589 79.1153 19.3589C81.3843 19.3589 83.1025 17.7334 83.1025 15.0393Z" fill="white"/>
<path d="M105.805 1.32715V22.839H101.468V21.0416C100.334 22.405 98.6731 23.0724 96.5768 23.0724C92.1538 23.0724 88.7462 19.9402 88.7462 15.0392C88.7462 10.1383 92.1538 7.01015 96.5768 7.01015C98.4964 7.01015 100.128 7.62021 101.263 8.89356V1.32715H105.805ZM101.353 15.0392C101.353 12.3451 99.6062 10.7197 97.366 10.7197C95.1257 10.7197 93.35 12.3451 93.35 15.0392C93.35 17.7333 95.097 19.3588 97.366 19.3588C99.635 19.3588 101.353 17.7333 101.353 15.0392Z" fill="white"/>
<path d="M124.376 16.3168H112.53C112.965 18.2575 114.626 19.449 117.014 19.449C118.675 19.449 119.867 18.9577 120.944 17.9422L123.361 20.5504C121.906 22.2045 119.723 23.0725 116.899 23.0725C111.486 23.0725 107.963 19.6783 107.963 15.0393C107.963 10.4004 111.543 7.01025 116.315 7.01025C121.088 7.01025 124.467 10.0851 124.467 15.1007C124.467 15.4488 124.409 15.9401 124.38 16.3168H124.376ZM112.472 13.6759H120.188C119.867 11.7024 118.383 10.4291 116.344 10.4291C114.305 10.4291 112.793 11.6778 112.472 13.6759Z" fill="white"/>
<path d="M140.033 13.9379V22.8391H135.783V20.8984C134.94 22.3191 133.308 23.0725 131.011 23.0725C127.344 23.0725 125.161 21.0417 125.161 18.3476C125.161 15.6535 127.11 13.68 131.886 13.68H135.495C135.495 11.7393 134.332 10.6051 131.886 10.6051C130.226 10.6051 128.507 11.1579 127.373 12.0545L125.741 8.89367C127.459 7.67764 129.991 7.01025 132.495 7.01025C137.267 7.01025 140.033 9.21303 140.033 13.9379ZM135.495 17.9095V16.3168H132.379C130.254 16.3168 129.584 17.0988 129.584 18.1429C129.584 19.2729 130.546 20.0263 132.145 20.0263C133.658 20.0263 134.969 19.3302 135.491 17.9095H135.495Z" fill="white"/>
<path d="M141.751 21.3897L143.264 18.1429C144.662 19.0436 146.787 19.6496 148.706 19.6496C150.803 19.6496 151.588 19.0969 151.588 18.2289C151.588 15.6781 142.13 18.2862 142.13 12.0545C142.13 9.09839 144.806 7.01025 149.376 7.01025C151.53 7.01025 153.919 7.50158 155.402 8.37368L153.89 11.5919C152.348 10.7239 150.803 10.4332 149.376 10.4332C147.338 10.4332 146.466 11.0719 146.466 11.8826C146.466 14.548 155.925 11.9685 155.925 18.1142C155.925 21.013 153.22 23.0725 148.53 23.0725C145.883 23.0725 143.202 22.3478 141.747 21.3897H141.751Z" fill="white"/>
<path d="M156.331 21.3897L157.844 18.1429C159.242 19.0436 161.367 19.6496 163.286 19.6496C165.383 19.6496 166.168 19.0969 166.168 18.2289C166.168 15.6781 156.71 18.2862 156.71 12.0545C156.71 9.09839 159.385 7.01025 163.956 7.01025C166.11 7.01025 168.499 7.50158 169.982 8.37368L168.47 11.5919C166.928 10.7239 165.383 10.4332 163.956 10.4332C161.918 10.4332 161.046 11.0719 161.046 11.8826C161.046 14.548 170.504 11.9685 170.504 18.1142C170.504 21.013 167.8 23.0725 163.11 23.0725C160.462 23.0725 157.782 22.3478 156.327 21.3897H156.331Z" fill="white"/>
<path d="M172.428 7.2395H176.97V22.8391H172.428V7.2395Z" fill="white"/>
<path d="M178.804 21.3897L180.316 18.1429C181.714 19.0436 183.839 19.6496 185.759 19.6496C187.855 19.6496 188.64 19.0969 188.64 18.2289C188.64 15.6781 179.182 18.2862 179.182 12.0545C179.182 9.09839 181.858 7.01025 186.429 7.01025C188.583 7.01025 190.971 7.50158 192.455 8.37368L190.942 11.5919C189.401 10.7239 187.855 10.4332 186.429 10.4332C184.39 10.4332 183.518 11.0719 183.518 11.8826C183.518 14.548 192.977 11.9685 192.977 18.1142C192.977 21.013 190.272 23.0725 185.582 23.0725C182.935 23.0725 180.255 22.3478 178.8 21.3897H178.804Z" fill="white"/>
<path d="M205 22.0856C204.067 22.753 202.702 23.0724 201.305 23.0724C197.609 23.0724 195.455 21.189 195.455 17.4754V11.0676H193.038V7.58743H195.455V3.78784H199.998V7.58743H203.898V11.0676H199.998V17.418C199.998 18.7528 200.725 19.4775 201.946 19.4775C202.616 19.4775 203.286 19.2728 203.779 18.8961L205 22.0856Z" fill="white"/>
<path opacity="0.4" d="M162.006 27.2527H56.5952C55.8225 27.2527 55.196 27.8766 55.196 28.6463V35.3564C55.196 36.1261 55.8225 36.75 56.5952 36.75H162.006C162.779 36.75 163.405 36.1261 163.405 35.3564V28.6463C163.405 27.8766 162.779 27.2527 162.006 27.2527Z" fill="#505151" stroke="#D6D5D4" stroke-width="0.506674" stroke-miterlimit="10"/>
<path d="M57.7871 29.3848H60.2433L60.5024 29.6325V29.8906H60.7512L61.0103 30.1384V31.3565L60.7512 31.6146H60.5024V31.9449H60.7512L61.0103 32.203V34.376H60.3314V32.1152H58.4711V34.376H57.7923V29.3848H57.7871ZM58.4711 30.0609V31.4391H60.3314V30.0609H58.4711Z" fill="#D6D5D4"/>
<path d="M63.6582 29.3848H66.8814V30.0609H64.3422V31.4391H66.5394V32.1152H64.3422V33.6999H66.8814V34.376H63.6582V29.3848Z" fill="#D6D5D4"/>
<path d="M69.5293 32.874H70.2081V33.6947H72.0684V32.1101H70.2859L70.0268 31.8623V31.6146H69.778L69.5293 31.3565V30.1384L69.778 29.8906H70.0268V29.6325L70.2859 29.3848H71.9804L72.2394 29.6325V29.8906H72.7473V30.8816H72.0684V30.0609H70.2081V31.4391H71.9855L72.2446 31.6972V31.9449H72.4934L72.7525 32.203V33.6224L72.4934 33.8702H72.2446V34.1179L71.9855 34.376H70.291L70.0319 34.1179V33.8702H69.5293V32.8792V32.874Z" fill="#D6D5D4"/>
<path d="M75.4005 29.3848H78.6237V30.0609H76.0845V31.4391H78.2817V32.1152H76.0845V33.6999H78.6237V34.376H75.4005V29.3848Z" fill="#D6D5D4"/>
<path d="M81.2716 30.1384L81.5203 29.8906H81.7691V29.6325L82.0282 29.3848H83.7227L83.9818 29.6325V29.8906H84.2305L84.4896 30.1384V34.376H83.8108V32.3165H81.9504V34.376H81.2716V30.1384ZM81.9504 31.6352H83.8108V30.0609H81.9504V31.6352Z" fill="#D6D5D4"/>
<path d="M87.1427 29.3848H89.5989L89.858 29.6325V29.8906H90.1068L90.3659 30.1384V31.3565L90.1068 31.6146H89.858V31.9449H90.1068L90.3659 32.203V34.376H89.687V32.1152H87.8267V34.376H87.1479V29.3848H87.1427ZM87.8215 30.0609V31.4391H89.6819V30.0609H87.8215Z" fill="#D6D5D4"/>
<path d="M93.0137 30.1384L93.2624 29.8906H93.5111V29.6325L93.7702 29.3848H95.4647L95.7238 29.6325V29.8906H96.2317V30.8816H95.5528V30.0609H93.6925V33.6999H95.5528V32.8792H96.2317V33.8702H95.7238V34.1179L95.4647 34.376H93.7702L93.5111 34.1179V33.8702H93.2624L93.0137 33.6224V30.1435V30.1384Z" fill="#D6D5D4"/>
<path d="M99.5637 29.3848V31.4391H101.424V29.3848H102.103V34.376H101.424V32.1152H99.5637V34.376H98.8849V29.3848H99.5637Z" fill="#D6D5D4"/>
<path d="M110.622 29.3743H113.083L113.332 29.6323V29.8801H113.581L113.84 30.1382V31.5576L113.581 31.8054H113.332V32.0531L113.083 32.3112H111.301V34.3707H110.622V29.3743ZM111.301 31.635H113.161V30.0504H111.301V31.635Z" fill="#D6D5D4"/>
<path d="M116.493 29.3848H118.949L119.208 29.6325V29.8906H119.457L119.716 30.1384V31.3565L119.457 31.6146H119.208V31.9449H119.457L119.716 32.203V34.376H119.037V32.1152H117.177V34.376H116.498V29.3848H116.493ZM117.172 30.0609V31.4391H119.032V30.0609H117.172Z" fill="#D6D5D4"/>
<path d="M122.364 33.6173V30.1384L122.613 29.8906H122.862V29.6325L123.121 29.3848H124.815L125.075 29.6325V29.8906H125.323L125.582 30.1384V33.6173L125.323 33.865H125.075V34.1128L124.815 34.3709H123.121L122.862 34.1128V33.865H122.613L122.364 33.6173ZM124.904 33.6947V30.0558H123.043V33.6947H124.904Z" fill="#D6D5D4"/>
<path d="M128.235 29.3848H131.459V30.0609H130.184V34.376H129.505V30.0609H128.235V29.3848Z" fill="#D6D5D4"/>
<path d="M134.107 33.6173V30.1384L134.355 29.8906H134.604V29.6325L134.863 29.3848H136.558L136.817 29.6325V29.8906H137.065L137.325 30.1384V33.6173L137.065 33.865H136.817V34.1128L136.558 34.3709H134.863L134.604 34.1128V33.865H134.355L134.107 33.6173ZM136.646 33.6947V30.0558H134.785V33.6947H136.646Z" fill="#D6D5D4"/>
<path d="M139.978 29.3848H143.201V30.0609H141.926V34.376H141.247V30.0609H139.978V29.3848Z" fill="#D6D5D4"/>
<path d="M145.849 29.3848H146.528V30.319L147.284 31.0829V31.4391H147.621V31.0829L148.388 30.319V29.3848H149.067V30.5977L148.041 31.6197H147.792V34.3812H147.113V31.6197H146.865L145.849 30.5977V29.3848Z" fill="#D6D5D4"/>
<path d="M151.715 29.3743H154.176L154.425 29.6323V29.8801H154.674L154.933 30.1382V31.5576L154.674 31.8054H154.425V32.0531L154.176 32.3112H152.394V34.3707H151.715V29.3743ZM152.399 31.635H154.259V30.0504H152.399V31.635Z" fill="#D6D5D4"/>
<path d="M157.586 29.3848H160.809V30.0609H158.27V31.4391H160.467V32.1152H158.27V33.6999H160.809V34.376H157.586V29.3848Z" fill="#D6D5D4"/>
<path d="M172.428 5.38034V1.38013H176.97V5.38034H172.428Z" fill="white"/>
</g>
<defs>
<clipPath id="clip0_686_2072">
<rect width="205" height="43" fill="white"/>
</clipPath>
</defs>
</svg>